# xmcd CD database file
#
# Track frame offsets:
#	150
#	16392
#	33225
#	45652
#	60742
#	74295
#	101940
#	124445
#	141710
#	159477
#
# Disc length: 2347 seconds
#
# Revision: 0
# Processed by: cddbd v1.5.1PL2 Copyright (c) Steve Scherf et al.
# Submitted via: CDex 1.51
#
DISCID=9509290a
DTITLE=Various Artist - Carlsberg Jazz
DYEAR=1999
DGENRE=Jazz
TTITLE0=In The Mood
TTITLE1=Rocket To The Moon
TTITLE2=Datin' With No Dough
TTITLE3=Stringbean
TTITLE4=My Blue Heaven
TTITLE5=Expansions
TTITLE6=Let Me Ride
TTITLE7=For B.B. King
TTITLE8=Sophisticated Mama
TTITLE9=Gotham City Serenade
EXTD=YEAR: 1999
EXTT0=
EXTT1=
EXTT2=
EXTT3=
EXTT4=
EXTT5=
EXTT6=
EXTT7=
EXTT8=
EXTT9=
PLAYORDER=
